<?xml version="1.0" encoding="UTF-8"?>
<svg width="1391px" height="1127px" viewBox="0 0 1391 1127" version="1.1" xmlns="http://www.w3.org/2000/svg" xmlns:xlink="http://www.w3.org/1999/xlink">
    <!-- Generator: Sketch 51.3 (57544) - http://www.bohemiancoding.com/sketch -->
    <title>Group</title>
    <desc>Created with Sketch.</desc>
    <defs></defs>
    <g id="Page-1" stroke="none" stroke-width="1" fill="none" fill-rule="evenodd">
        <g id="website" transform="translate(-16.000000, -87.000000)" fill="#D3DDE0">
            <g id="Group" transform="translate(16.000000, 87.000000)">
                <g id="dots-copy-2" transform="translate(17.000000, 815.000000)">
                    <circle id="Oval-3" cx="18.5" cy="1.5" r="1.5"></circle>
                    <circle id="Oval-3-Copy" cx="18.5" cy="18.5" r="1.5"></circle>
                    <circle id="Oval-3-Copy-2" cx="35.5" cy="18.5" r="1.5"></circle>
                    <circle id="Oval-3-Copy-3" cx="35.5" cy="35.5" r="1.5"></circle>
                    <circle id="Oval-3-Copy-5" cx="52.5" cy="18.5" r="1.5"></circle>
                    <circle id="Oval-3-Copy-4" cx="52.5" cy="35.5" r="1.5"></circle>
                    <circle id="Oval-3-Copy-7" cx="69.5" cy="18.5" r="1.5"></circle>
                    <circle id="Oval-3-Copy-9" cx="52.5" cy="1.5" r="1.5"></circle>
                    <circle id="Oval-3-Copy-8" cx="69.5" cy="1.5" r="1.5"></circle>
                    <circle id="Oval-3-Copy-6" cx="69.5" cy="35.5" r="1.5"></circle>
                    <circle id="Oval-3-Copy-10" cx="86.5" cy="35.5" r="1.5"></circle>
                    <circle id="Oval-3-Copy-11" cx="103.5" cy="35.5" r="1.5"></circle>
                    <circle id="Oval-3-Copy-46" cx="224.5" cy="35.5" r="1.5"></circle>
                    <circle id="Oval-3-Copy-47" cx="224.5" cy="53.5" r="1.5"></circle>
                    <circle id="Oval-3-Copy-50" cx="310.5" cy="53.5" r="1.5"></circle>
                    <circle id="Oval-3-Copy-45" cx="241.5" cy="35.5" r="1.5"></circle>
                    <circle id="Oval-3-Copy-44" cx="258.5" cy="35.5" r="1.5"></circle>
                    <circle id="Oval-3-Copy-43" cx="275.5" cy="35.5" r="1.5"></circle>
                    <circle id="Oval-3-Copy-42" cx="292.5" cy="35.5" r="1.5"></circle>
                    <circle id="Oval-3-Copy-49" cx="258.5" cy="70.5" r="1.5"></circle>
                    <circle id="Oval-3-Copy-48" cx="292.5" cy="70.5" r="1.5"></circle>
                    <circle id="Oval-3-Copy-51" cx="326.5" cy="70.5" r="1.5"></circle>
                    <circle id="Oval-3-Copy-52" cx="326.5" cy="87.5" r="1.5"></circle>
                    <circle id="Oval-3-Copy-53" cx="326.5" cy="104.5" r="1.5"></circle>
                    <circle id="Oval-3-Copy-54" cx="326.5" cy="121.5" r="1.5"></circle>
                    <circle id="Oval-3-Copy-55" cx="309.5" cy="121.5" r="1.5"></circle>
                    <circle id="Oval-3-Copy-56" cx="343.5" cy="121.5" r="1.5"></circle>
                    <circle id="Oval-3-Copy-57" cx="343.5" cy="104.5" r="1.5"></circle>
                    <circle id="Oval-3-Copy-58" cx="360.5" cy="104.5" r="1.5"></circle>
                    <circle id="Oval-3-Copy-59" cx="377.5" cy="104.5" r="1.5"></circle>
                    <circle id="Oval-3-Copy-60" cx="377.5" cy="87.5" r="1.5"></circle>
                    <circle id="Oval-3-Copy-61" cx="498.5" cy="87.5" r="1.5"></circle>
                    <circle id="Oval-3-Copy-62" cx="532.5" cy="87.5" r="1.5"></circle>
                    <circle id="Oval-3-Copy-65" cx="532.5" cy="104.5" r="1.5"></circle>
                    <circle id="Oval-3-Copy-66" cx="532.5" cy="121.5" r="1.5"></circle>
                    <circle id="Oval-3-Copy-67" cx="515.5" cy="121.5" r="1.5"></circle>
                    <circle id="Oval-3-Copy-70" cx="618.5" cy="121.5" r="1.5"></circle>
                    <circle id="Oval-3-Copy-73" cx="618.5" cy="70.5" r="1.5"></circle>
                    <circle id="Oval-3-Copy-77" cx="686.5" cy="70.5" r="1.5"></circle>
                    <circle id="Oval-3-Copy-78" cx="686.5" cy="87.5" r="1.5"></circle>
                    <circle id="Oval-3-Copy-104" cx="789.5" cy="70.5" r="1.5"></circle>
                    <circle id="Oval-3-Copy-105" cx="772.5" cy="70.5" r="1.5"></circle>
                    <circle id="Oval-3-Copy-106" cx="772.5" cy="52.5" r="1.5"></circle>
                    <circle id="Oval-3-Copy-109" cx="840.5" cy="70.5" r="1.5"></circle>
                    <circle id="Oval-3-Copy-108" cx="823.5" cy="70.5" r="1.5"></circle>
                    <circle id="Oval-3-Copy-119" cx="1029.5" cy="70.5" r="1.5"></circle>
                    <circle id="Oval-3-Copy-120" cx="1063.5" cy="70.5" r="1.5"></circle>
                    <circle id="Oval-3-Copy-118" cx="1012.5" cy="70.5" r="1.5"></circle>
                    <circle id="Oval-3-Copy-107" cx="823.5" cy="52.5" r="1.5"></circle>
                    <circle id="Oval-3-Copy-114" cx="1012.5" cy="52.5" r="1.5"></circle>
                    <circle id="Oval-3-Copy-115" cx="1046.5" cy="52.5" r="1.5"></circle>
                    <circle id="Oval-3-Copy-117" cx="1132.5" cy="52.5" r="1.5"></circle>
                    <circle id="Oval-3-Copy-116" cx="1166.5" cy="52.5" r="1.5"></circle>
                    <circle id="Oval-3-Copy-111" cx="807.5" cy="35.5" r="1.5"></circle>
                    <circle id="Oval-3-Copy-112" cx="1115.5" cy="35.5" r="1.5"></circle>
                    <circle id="Oval-3-Copy-113" cx="1166.5" cy="35.5" r="1.5"></circle>
                    <circle id="Oval-3-Copy-103" cx="789.5" cy="87.5" r="1.5"></circle>
                    <circle id="Oval-3-Copy-110" cx="823.5" cy="87.5" r="1.5"></circle>
                    <circle id="Oval-3-Copy-121" cx="1013.5" cy="87.5" r="1.5"></circle>
                    <circle id="Oval-3-Copy-124" cx="1013.5" cy="104.5" r="1.5"></circle>
                    <circle id="Oval-3-Copy-126" cx="1081.5" cy="104.5" r="1.5"></circle>
                    <circle id="Oval-3-Copy-127" cx="1115.5" cy="104.5" r="1.5"></circle>
                    <circle id="Oval-3-Copy-128" cx="1133.5" cy="104.5" r="1.5"></circle>
                    <circle id="Oval-3-Copy-129" cx="1184.5" cy="104.5" r="1.5"></circle>
                    <circle id="Oval-3-Copy-133" cx="1372.5" cy="104.5" r="1.5"></circle>
                    <circle id="Oval-3-Copy-125" cx="1013.5" cy="121.5" r="1.5"></circle>
                    <circle id="Oval-3-Copy-122" cx="1046.5" cy="87.5" r="1.5"></circle>
                    <circle id="Oval-3-Copy-123" cx="1063.5" cy="87.5" r="1.5"></circle>
                    <circle id="Oval-3-Copy-130" cx="1183.5" cy="87.5" r="1.5"></circle>
                    <circle id="Oval-3-Copy-131" cx="1321.5" cy="87.5" r="1.5"></circle>
                    <circle id="Oval-3-Copy-134" cx="1321.5" cy="121.5" r="1.5"></circle>
                    <circle id="Oval-3-Copy-135" cx="1303.5" cy="121.5" r="1.5"></circle>
                    <circle id="Oval-3-Copy-137" cx="1321.5" cy="190.5" r="1.5"></circle>
                    <circle id="Oval-3-Copy-138" cx="1321.5" cy="207.5" r="1.5"></circle>
                    <circle id="Oval-3-Copy-136" cx="1303.5" cy="190.5" r="1.5"></circle>
                    <circle id="Oval-3-Copy-139" cx="1286.5" cy="190.5" r="1.5"></circle>
                    <circle id="Oval-3-Copy-140" cx="1252.5" cy="190.5" r="1.5"></circle>
                    <circle id="Oval-3-Copy-141" cx="1252.5" cy="155.5" r="1.5"></circle>
                    <circle id="Oval-3-Copy-142" cx="1270.5" cy="173.5" r="1.5"></circle>
                    <circle id="Oval-3-Copy-132" cx="1355.5" cy="87.5" r="1.5"></circle>
                    <circle id="Oval-3-Copy-74" cx="618.5" cy="35.5" r="1.5"></circle>
                    <circle id="Oval-3-Copy-75" cx="635.5" cy="35.5" r="1.5"></circle>
                    <circle id="Oval-3-Copy-76" cx="669.5" cy="35.5" r="1.5"></circle>
                    <circle id="Oval-3-Copy-69" cx="601.5" cy="121.5" r="1.5"></circle>
                    <circle id="Oval-3-Copy-72" cx="669.5" cy="121.5" r="1.5"></circle>
                    <circle id="Oval-3-Copy-79" cx="669.5" cy="138.5" r="1.5"></circle>
                    <circle id="Oval-3-Copy-71" cx="652.5" cy="121.5" r="1.5"></circle>
                    <circle id="Oval-3-Copy-80" cx="635.5" cy="138.5" r="1.5"></circle>
                    <circle id="Oval-3-Copy-82" cx="669.5" cy="155.5" r="1.5"></circle>
                    <circle id="Oval-3-Copy-83" cx="652.5" cy="155.5" r="1.5"></circle>
                    <circle id="Oval-3-Copy-85" cx="669.5" cy="172.5" r="1.5"></circle>
                    <circle id="Oval-3-Copy-84" cx="652.5" cy="172.5" r="1.5"></circle>
                    <circle id="Oval-3-Copy-87" cx="669.5" cy="190.5" r="1.5"></circle>
                    <circle id="Oval-3-Copy-86" cx="652.5" cy="190.5" r="1.5"></circle>
                    <circle id="Oval-3-Copy-89" cx="652.5" cy="207.5" r="1.5"></circle>
                    <circle id="Oval-3-Copy-91" cx="652.5" cy="224.5" r="1.5"></circle>
                    <circle id="Oval-3-Copy-96" cx="652.5" cy="258.5" r="1.5"></circle>
                    <circle id="Oval-3-Copy-95" cx="652.5" cy="275.5" r="1.5"></circle>
                    <circle id="Oval-3-Copy-102" cx="686.5" cy="275.5" r="1.5"></circle>
                    <circle id="Oval-3-Copy-92" cx="669.5" cy="224.5" r="1.5"></circle>
                    <circle id="Oval-3-Copy-93" cx="635.5" cy="224.5" r="1.5"></circle>
                    <circle id="Oval-3-Copy-94" cx="635.5" cy="241.5" r="1.5"></circle>
                    <circle id="Oval-3-Copy-97" cx="635.5" cy="276.5" r="1.5"></circle>
                    <circle id="Oval-3-Copy-98" cx="635.5" cy="292.5" r="1.5"></circle>
                    <circle id="Oval-3-Copy-99" cx="669.5" cy="292.5" r="1.5"></circle>
                    <circle id="Oval-3-Copy-101" cx="635.5" cy="310.5" r="1.5"></circle>
                    <circle id="Oval-3-Copy-100" cx="669.5" cy="310.5" r="1.5"></circle>
                    <circle id="Oval-3-Copy-90" cx="686.5" cy="207.5" r="1.5"></circle>
                    <circle id="Oval-3-Copy-88" cx="635.5" cy="190.5" r="1.5"></circle>
                    <circle id="Oval-3-Copy-81" cx="635.5" cy="155.5" r="1.5"></circle>
                    <circle id="Oval-3-Copy-68" cx="549.5" cy="121.5" r="1.5"></circle>
                    <circle id="Oval-3-Copy-63" cx="549.5" cy="87.5" r="1.5"></circle>
                    <circle id="Oval-3-Copy-64" cx="549.5" cy="70.5" r="1.5"></circle>
                    <circle id="Oval-3-Copy-18" cx="18.5" cy="53.5" r="1.5"></circle>
                    <circle id="Oval-3-Copy-17" cx="35.5" cy="53.5" r="1.5"></circle>
                    <circle id="Oval-3-Copy-16" cx="52.5" cy="53.5" r="1.5"></circle>
                    <circle id="Oval-3-Copy-21" cx="18.5" cy="70.5" r="1.5"></circle>
                    <circle id="Oval-3-Copy-20" cx="35.5" cy="70.5" r="1.5"></circle>
                    <circle id="Oval-3-Copy-26" cx="35.5" cy="173.5" r="1.5"></circle>
                    <circle id="Oval-3-Copy-36" cx="138.5" cy="173.5" r="1.5"></circle>
                    <circle id="Oval-3-Copy-37" cx="155.5" cy="173.5" r="1.5"></circle>
                    <circle id="Oval-3-Copy-38" cx="172.5" cy="173.5" r="1.5"></circle>
                    <circle id="Oval-3-Copy-39" cx="172.5" cy="138.5" r="1.5"></circle>
                    <circle id="Oval-3-Copy-40" cx="172.5" cy="121.5" r="1.5"></circle>
                    <circle id="Oval-3-Copy-41" cx="172.5" cy="104.5" r="1.5"></circle>
                    <circle id="Oval-3-Copy-27" cx="35.5" cy="190.5" r="1.5"></circle>
                    <circle id="Oval-3-Copy-31" cx="35.5" cy="224.5" r="1.5"></circle>
                    <circle id="Oval-3-Copy-30" cx="18.5" cy="207.5" r="1.5"></circle>
                    <circle id="Oval-3-Copy-32" cx="18.5" cy="258.5" r="1.5"></circle>
                    <circle id="Oval-3-Copy-33" cx="52.5" cy="258.5" r="1.5"></circle>
                    <circle id="Oval-3-Copy-34" cx="86.5" cy="258.5" r="1.5"></circle>
                    <circle id="Oval-3-Copy-35" cx="86.5" cy="241.5" r="1.5"></circle>
                    <circle id="Oval-3-Copy-28" cx="1.5" cy="190.5" r="1.5"></circle>
                    <circle id="Oval-3-Copy-29" cx="1.5" cy="155.5" r="1.5"></circle>
                    <circle id="Oval-3-Copy-19" cx="52.5" cy="70.5" r="1.5"></circle>
                    <circle id="Oval-3-Copy-25" cx="52.5" cy="155.5" r="1.5"></circle>
                    <circle id="Oval-3-Copy-22" cx="103.5" cy="70.5" r="1.5"></circle>
                    <circle id="Oval-3-Copy-15" cx="69.5" cy="53.5" r="1.5"></circle>
                    <circle id="Oval-3-Copy-24" cx="52.5" cy="121.5" r="1.5"></circle>
                    <circle id="Oval-3-Copy-23" cx="69.5" cy="121.5" r="1.5"></circle>
                    <circle id="Oval-3-Copy-14" cx="86.5" cy="53.5" r="1.5"></circle>
                    <circle id="Oval-3-Copy-12" cx="103.5" cy="18.5" r="1.5"></circle>
                    <circle id="Oval-3-Copy-13" cx="120.5" cy="18.5" r="1.5"></circle>
                </g>
                <g id="dots">
                    <circle id="Oval-3" cx="18.5" cy="1.5" r="1.5"></circle>
                    <circle id="Oval-3-Copy" cx="18.5" cy="18.5" r="1.5"></circle>
                    <circle id="Oval-3-Copy-2" cx="35.5" cy="18.5" r="1.5"></circle>
                    <circle id="Oval-3-Copy-3" cx="35.5" cy="35.5" r="1.5"></circle>
                    <circle id="Oval-3-Copy-5" cx="52.5" cy="18.5" r="1.5"></circle>
                    <circle id="Oval-3-Copy-4" cx="52.5" cy="35.5" r="1.5"></circle>
                    <circle id="Oval-3-Copy-7" cx="69.5" cy="18.5" r="1.5"></circle>
                    <circle id="Oval-3-Copy-9" cx="52.5" cy="1.5" r="1.5"></circle>
                    <circle id="Oval-3-Copy-8" cx="69.5" cy="1.5" r="1.5"></circle>
                    <circle id="Oval-3-Copy-6" cx="69.5" cy="35.5" r="1.5"></circle>
                    <circle id="Oval-3-Copy-10" cx="86.5" cy="35.5" r="1.5"></circle>
                    <circle id="Oval-3-Copy-11" cx="103.5" cy="35.5" r="1.5"></circle>
                    <circle id="Oval-3-Copy-46" cx="224.5" cy="35.5" r="1.5"></circle>
                    <circle id="Oval-3-Copy-47" cx="224.5" cy="53.5" r="1.5"></circle>
                    <circle id="Oval-3-Copy-50" cx="310.5" cy="53.5" r="1.5"></circle>
                    <circle id="Oval-3-Copy-45" cx="241.5" cy="35.5" r="1.5"></circle>
                    <circle id="Oval-3-Copy-44" cx="258.5" cy="35.5" r="1.5"></circle>
                    <circle id="Oval-3-Copy-43" cx="275.5" cy="35.5" r="1.5"></circle>
                    <circle id="Oval-3-Copy-42" cx="292.5" cy="35.5" r="1.5"></circle>
                    <circle id="Oval-3-Copy-49" cx="258.5" cy="70.5" r="1.5"></circle>
                    <circle id="Oval-3-Copy-48" cx="292.5" cy="70.5" r="1.5"></circle>
                    <circle id="Oval-3-Copy-51" cx="326.5" cy="70.5" r="1.5"></circle>
                    <circle id="Oval-3-Copy-52" cx="326.5" cy="87.5" r="1.5"></circle>
                    <circle id="Oval-3-Copy-53" cx="326.5" cy="104.5" r="1.5"></circle>
                    <circle id="Oval-3-Copy-54" cx="326.5" cy="121.5" r="1.5"></circle>
                    <circle id="Oval-3-Copy-55" cx="309.5" cy="121.5" r="1.5"></circle>
                    <circle id="Oval-3-Copy-56" cx="343.5" cy="121.5" r="1.5"></circle>
                    <circle id="Oval-3-Copy-57" cx="343.5" cy="104.5" r="1.5"></circle>
                    <circle id="Oval-3-Copy-58" cx="360.5" cy="104.5" r="1.5"></circle>
                    <circle id="Oval-3-Copy-59" cx="377.5" cy="104.5" r="1.5"></circle>
                    <circle id="Oval-3-Copy-60" cx="377.5" cy="87.5" r="1.5"></circle>
                    <circle id="Oval-3-Copy-61" cx="498.5" cy="87.5" r="1.5"></circle>
                    <circle id="Oval-3-Copy-62" cx="532.5" cy="87.5" r="1.5"></circle>
                    <circle id="Oval-3-Copy-65" cx="532.5" cy="104.5" r="1.5"></circle>
                    <circle id="Oval-3-Copy-66" cx="532.5" cy="121.5" r="1.5"></circle>
                    <circle id="Oval-3-Copy-67" cx="515.5" cy="121.5" r="1.5"></circle>
                    <circle id="Oval-3-Copy-70" cx="618.5" cy="121.5" r="1.5"></circle>
                    <circle id="Oval-3-Copy-73" cx="618.5" cy="70.5" r="1.5"></circle>
                    <circle id="Oval-3-Copy-77" cx="686.5" cy="70.5" r="1.5"></circle>
                    <circle id="Oval-3-Copy-78" cx="686.5" cy="87.5" r="1.5"></circle>
                    <circle id="Oval-3-Copy-104" cx="789.5" cy="70.5" r="1.5"></circle>
                    <circle id="Oval-3-Copy-105" cx="772.5" cy="70.5" r="1.5"></circle>
                    <circle id="Oval-3-Copy-106" cx="772.5" cy="52.5" r="1.5"></circle>
                    <circle id="Oval-3-Copy-109" cx="840.5" cy="70.5" r="1.5"></circle>
                    <circle id="Oval-3-Copy-108" cx="823.5" cy="70.5" r="1.5"></circle>
                    <circle id="Oval-3-Copy-119" cx="1029.5" cy="70.5" r="1.5"></circle>
                    <circle id="Oval-3-Copy-120" cx="1063.5" cy="70.5" r="1.5"></circle>
                    <circle id="Oval-3-Copy-118" cx="1012.5" cy="70.5" r="1.5"></circle>
                    <circle id="Oval-3-Copy-107" cx="823.5" cy="52.5" r="1.5"></circle>
                    <circle id="Oval-3-Copy-114" cx="1012.5" cy="52.5" r="1.5"></circle>
                    <circle id="Oval-3-Copy-115" cx="1046.5" cy="52.5" r="1.5"></circle>
                    <circle id="Oval-3-Copy-117" cx="1132.5" cy="52.5" r="1.5"></circle>
                    <circle id="Oval-3-Copy-116" cx="1166.5" cy="52.5" r="1.5"></circle>
                    <circle id="Oval-3-Copy-111" cx="807.5" cy="35.5" r="1.5"></circle>
                    <circle id="Oval-3-Copy-112" cx="1115.5" cy="35.5" r="1.5"></circle>
                    <circle id="Oval-3-Copy-113" cx="1166.5" cy="35.5" r="1.5"></circle>
                    <circle id="Oval-3-Copy-103" cx="789.5" cy="87.5" r="1.5"></circle>
                    <circle id="Oval-3-Copy-110" cx="823.5" cy="87.5" r="1.5"></circle>
                    <circle id="Oval-3-Copy-121" cx="1013.5" cy="87.5" r="1.5"></circle>
                    <circle id="Oval-3-Copy-124" cx="1013.5" cy="104.5" r="1.5"></circle>
                    <circle id="Oval-3-Copy-126" cx="1081.5" cy="104.5" r="1.5"></circle>
                    <circle id="Oval-3-Copy-127" cx="1115.5" cy="104.5" r="1.5"></circle>
                    <circle id="Oval-3-Copy-128" cx="1133.5" cy="104.5" r="1.5"></circle>
                    <circle id="Oval-3-Copy-129" cx="1184.5" cy="104.5" r="1.5"></circle>
                    <circle id="Oval-3-Copy-133" cx="1372.5" cy="104.5" r="1.5"></circle>
                    <circle id="Oval-3-Copy-125" cx="1013.5" cy="121.5" r="1.5"></circle>
                    <circle id="Oval-3-Copy-122" cx="1046.5" cy="87.5" r="1.5"></circle>
                    <circle id="Oval-3-Copy-123" cx="1063.5" cy="87.5" r="1.5"></circle>
                    <circle id="Oval-3-Copy-130" cx="1183.5" cy="87.5" r="1.5"></circle>
                    <circle id="Oval-3-Copy-131" cx="1321.5" cy="87.5" r="1.5"></circle>
                    <circle id="Oval-3-Copy-134" cx="1321.5" cy="121.5" r="1.5"></circle>
                    <circle id="Oval-3-Copy-135" cx="1303.5" cy="121.5" r="1.5"></circle>
                    <circle id="Oval-3-Copy-137" cx="1321.5" cy="190.5" r="1.5"></circle>
                    <circle id="Oval-3-Copy-138" cx="1321.5" cy="207.5" r="1.5"></circle>
                    <circle id="Oval-3-Copy-136" cx="1303.5" cy="190.5" r="1.5"></circle>
                    <circle id="Oval-3-Copy-139" cx="1286.5" cy="190.5" r="1.5"></circle>
                    <circle id="Oval-3-Copy-140" cx="1252.5" cy="190.5" r="1.5"></circle>
                    <circle id="Oval-3-Copy-141" cx="1252.5" cy="155.5" r="1.5"></circle>
                    <circle id="Oval-3-Copy-142" cx="1270.5" cy="173.5" r="1.5"></circle>
                    <circle id="Oval-3-Copy-132" cx="1355.5" cy="87.5" r="1.5"></circle>
                    <circle id="Oval-3-Copy-74" cx="618.5" cy="35.5" r="1.5"></circle>
                    <circle id="Oval-3-Copy-75" cx="635.5" cy="35.5" r="1.5"></circle>
                    <circle id="Oval-3-Copy-76" cx="669.5" cy="35.5" r="1.5"></circle>
                    <circle id="Oval-3-Copy-69" cx="601.5" cy="121.5" r="1.5"></circle>
                    <circle id="Oval-3-Copy-72" cx="669.5" cy="121.5" r="1.5"></circle>
                    <circle id="Oval-3-Copy-79" cx="669.5" cy="138.5" r="1.5"></circle>
                    <circle id="Oval-3-Copy-71" cx="652.5" cy="121.5" r="1.5"></circle>
                    <circle id="Oval-3-Copy-80" cx="635.5" cy="138.5" r="1.5"></circle>
                    <circle id="Oval-3-Copy-82" cx="669.5" cy="155.5" r="1.5"></circle>
                    <circle id="Oval-3-Copy-83" cx="652.5" cy="155.5" r="1.5"></circle>
                    <circle id="Oval-3-Copy-85" cx="669.5" cy="172.5" r="1.5"></circle>
                    <circle id="Oval-3-Copy-84" cx="652.5" cy="172.5" r="1.5"></circle>
                    <circle id="Oval-3-Copy-87" cx="669.5" cy="190.5" r="1.5"></circle>
                    <circle id="Oval-3-Copy-86" cx="652.5" cy="190.5" r="1.5"></circle>
                    <circle id="Oval-3-Copy-89" cx="652.5" cy="207.5" r="1.5"></circle>
                    <circle id="Oval-3-Copy-91" cx="652.5" cy="224.5" r="1.5"></circle>
                    <circle id="Oval-3-Copy-96" cx="652.5" cy="258.5" r="1.5"></circle>
                    <circle id="Oval-3-Copy-95" cx="652.5" cy="275.5" r="1.5"></circle>
                    <circle id="Oval-3-Copy-102" cx="686.5" cy="275.5" r="1.5"></circle>
                    <circle id="Oval-3-Copy-92" cx="669.5" cy="224.5" r="1.5"></circle>
                    <circle id="Oval-3-Copy-93" cx="635.5" cy="224.5" r="1.5"></circle>
                    <circle id="Oval-3-Copy-94" cx="635.5" cy="241.5" r="1.5"></circle>
                    <circle id="Oval-3-Copy-97" cx="635.5" cy="276.5" r="1.5"></circle>
                    <circle id="Oval-3-Copy-98" cx="635.5" cy="292.5" r="1.5"></circle>
                    <circle id="Oval-3-Copy-99" cx="669.5" cy="292.5" r="1.5"></circle>
                    <circle id="Oval-3-Copy-101" cx="635.5" cy="310.5" r="1.5"></circle>
                    <circle id="Oval-3-Copy-100" cx="669.5" cy="310.5" r="1.5"></circle>
                    <circle id="Oval-3-Copy-90" cx="686.5" cy="207.5" r="1.5"></circle>
                    <circle id="Oval-3-Copy-88" cx="635.5" cy="190.5" r="1.5"></circle>
                    <circle id="Oval-3-Copy-81" cx="635.5" cy="155.5" r="1.5"></circle>
                    <circle id="Oval-3-Copy-68" cx="549.5" cy="121.5" r="1.5"></circle>
                    <circle id="Oval-3-Copy-63" cx="549.5" cy="87.5" r="1.5"></circle>
                    <circle id="Oval-3-Copy-64" cx="549.5" cy="70.5" r="1.5"></circle>
                    <circle id="Oval-3-Copy-18" cx="18.5" cy="53.5" r="1.5"></circle>
                    <circle id="Oval-3-Copy-17" cx="35.5" cy="53.5" r="1.5"></circle>
                    <circle id="Oval-3-Copy-16" cx="52.5" cy="53.5" r="1.5"></circle>
                    <circle id="Oval-3-Copy-21" cx="18.5" cy="70.5" r="1.5"></circle>
                    <circle id="Oval-3-Copy-20" cx="35.5" cy="70.5" r="1.5"></circle>
                    <circle id="Oval-3-Copy-26" cx="35.5" cy="173.5" r="1.5"></circle>
                    <circle id="Oval-3-Copy-36" cx="138.5" cy="173.5" r="1.5"></circle>
                    <circle id="Oval-3-Copy-37" cx="155.5" cy="173.5" r="1.5"></circle>
                    <circle id="Oval-3-Copy-38" cx="172.5" cy="173.5" r="1.5"></circle>
                    <circle id="Oval-3-Copy-39" cx="172.5" cy="138.5" r="1.5"></circle>
                    <circle id="Oval-3-Copy-40" cx="172.5" cy="121.5" r="1.5"></circle>
                    <circle id="Oval-3-Copy-41" cx="172.5" cy="104.5" r="1.5"></circle>
                    <circle id="Oval-3-Copy-27" cx="35.5" cy="190.5" r="1.5"></circle>
                    <circle id="Oval-3-Copy-31" cx="35.5" cy="224.5" r="1.5"></circle>
                    <circle id="Oval-3-Copy-30" cx="18.5" cy="207.5" r="1.5"></circle>
                    <circle id="Oval-3-Copy-32" cx="18.5" cy="258.5" r="1.5"></circle>
                    <circle id="Oval-3-Copy-33" cx="52.5" cy="258.5" r="1.5"></circle>
                    <circle id="Oval-3-Copy-34" cx="86.5" cy="258.5" r="1.5"></circle>
                    <circle id="Oval-3-Copy-35" cx="86.5" cy="241.5" r="1.5"></circle>
                    <circle id="Oval-3-Copy-28" cx="1.5" cy="190.5" r="1.5"></circle>
                    <circle id="Oval-3-Copy-29" cx="1.5" cy="155.5" r="1.5"></circle>
                    <circle id="Oval-3-Copy-19" cx="52.5" cy="70.5" r="1.5"></circle>
                    <circle id="Oval-3-Copy-25" cx="52.5" cy="155.5" r="1.5"></circle>
                    <circle id="Oval-3-Copy-22" cx="103.5" cy="70.5" r="1.5"></circle>
                    <circle id="Oval-3-Copy-15" cx="69.5" cy="53.5" r="1.5"></circle>
                    <circle id="Oval-3-Copy-24" cx="52.5" cy="121.5" r="1.5"></circle>
                    <circle id="Oval-3-Copy-23" cx="69.5" cy="121.5" r="1.5"></circle>
                    <circle id="Oval-3-Copy-14" cx="86.5" cy="53.5" r="1.5"></circle>
                    <circle id="Oval-3-Copy-12" cx="103.5" cy="18.5" r="1.5"></circle>
                    <circle id="Oval-3-Copy-13" cx="120.5" cy="18.5" r="1.5"></circle>
                </g>
                <g id="dots-copy" transform="translate(687.000000, 486.000000) scale(-1, 1) translate(-687.000000, -486.000000) translate(0.000000, 330.000000)">
                    <circle id="Oval-3" cx="18.5" cy="1.5" r="1.5"></circle>
                    <circle id="Oval-3-Copy" cx="18.5" cy="18.5" r="1.5"></circle>
                    <circle id="Oval-3-Copy-2" cx="35.5" cy="18.5" r="1.5"></circle>
                    <circle id="Oval-3-Copy-3" cx="35.5" cy="35.5" r="1.5"></circle>
                    <circle id="Oval-3-Copy-5" cx="52.5" cy="18.5" r="1.5"></circle>
                    <circle id="Oval-3-Copy-4" cx="52.5" cy="35.5" r="1.5"></circle>
                    <circle id="Oval-3-Copy-7" cx="69.5" cy="18.5" r="1.5"></circle>
                    <circle id="Oval-3-Copy-9" cx="52.5" cy="1.5" r="1.5"></circle>
                    <circle id="Oval-3-Copy-8" cx="69.5" cy="1.5" r="1.5"></circle>
                    <circle id="Oval-3-Copy-6" cx="69.5" cy="35.5" r="1.5"></circle>
                    <circle id="Oval-3-Copy-10" cx="86.5" cy="35.5" r="1.5"></circle>
                    <circle id="Oval-3-Copy-11" cx="103.5" cy="35.5" r="1.5"></circle>
                    <circle id="Oval-3-Copy-46" cx="224.5" cy="35.5" r="1.5"></circle>
                    <circle id="Oval-3-Copy-47" cx="224.5" cy="53.5" r="1.5"></circle>
                    <circle id="Oval-3-Copy-50" cx="310.5" cy="53.5" r="1.5"></circle>
                    <circle id="Oval-3-Copy-45" cx="241.5" cy="35.5" r="1.5"></circle>
                    <circle id="Oval-3-Copy-44" cx="258.5" cy="35.5" r="1.5"></circle>
                    <circle id="Oval-3-Copy-43" cx="275.5" cy="35.5" r="1.5"></circle>
                    <circle id="Oval-3-Copy-42" cx="292.5" cy="35.5" r="1.5"></circle>
                    <circle id="Oval-3-Copy-49" cx="258.5" cy="70.5" r="1.5"></circle>
                    <circle id="Oval-3-Copy-48" cx="292.5" cy="70.5" r="1.5"></circle>
                    <circle id="Oval-3-Copy-51" cx="326.5" cy="70.5" r="1.5"></circle>
                    <circle id="Oval-3-Copy-52" cx="326.5" cy="87.5" r="1.5"></circle>
                    <circle id="Oval-3-Copy-53" cx="326.5" cy="104.5" r="1.5"></circle>
                    <circle id="Oval-3-Copy-54" cx="326.5" cy="121.5" r="1.5"></circle>
                    <circle id="Oval-3-Copy-55" cx="309.5" cy="121.5" r="1.5"></circle>
                    <circle id="Oval-3-Copy-56" cx="343.5" cy="121.5" r="1.5"></circle>
                    <circle id="Oval-3-Copy-57" cx="343.5" cy="104.5" r="1.5"></circle>
                    <circle id="Oval-3-Copy-58" cx="360.5" cy="104.5" r="1.5"></circle>
                    <circle id="Oval-3-Copy-59" cx="377.5" cy="104.5" r="1.5"></circle>
                    <circle id="Oval-3-Copy-60" cx="377.5" cy="87.5" r="1.5"></circle>
                    <circle id="Oval-3-Copy-61" cx="498.5" cy="87.5" r="1.5"></circle>
                    <circle id="Oval-3-Copy-62" cx="532.5" cy="87.5" r="1.5"></circle>
                    <circle id="Oval-3-Copy-65" cx="532.5" cy="104.5" r="1.5"></circle>
                    <circle id="Oval-3-Copy-66" cx="532.5" cy="121.5" r="1.5"></circle>
                    <circle id="Oval-3-Copy-67" cx="515.5" cy="121.5" r="1.5"></circle>
                    <circle id="Oval-3-Copy-70" cx="618.5" cy="121.5" r="1.5"></circle>
                    <circle id="Oval-3-Copy-73" cx="618.5" cy="70.5" r="1.5"></circle>
                    <circle id="Oval-3-Copy-77" cx="686.5" cy="70.5" r="1.5"></circle>
                    <circle id="Oval-3-Copy-78" cx="686.5" cy="87.5" r="1.5"></circle>
                    <circle id="Oval-3-Copy-104" cx="789.5" cy="70.5" r="1.5"></circle>
                    <circle id="Oval-3-Copy-105" cx="772.5" cy="70.5" r="1.5"></circle>
                    <circle id="Oval-3-Copy-106" cx="772.5" cy="52.5" r="1.5"></circle>
                    <circle id="Oval-3-Copy-109" cx="840.5" cy="70.5" r="1.5"></circle>
                    <circle id="Oval-3-Copy-108" cx="823.5" cy="70.5" r="1.5"></circle>
                    <circle id="Oval-3-Copy-119" cx="1029.5" cy="70.5" r="1.5"></circle>
                    <circle id="Oval-3-Copy-120" cx="1063.5" cy="70.5" r="1.5"></circle>
                    <circle id="Oval-3-Copy-118" cx="1012.5" cy="70.5" r="1.5"></circle>
                    <circle id="Oval-3-Copy-107" cx="823.5" cy="52.5" r="1.5"></circle>
                    <circle id="Oval-3-Copy-114" cx="1012.5" cy="52.5" r="1.5"></circle>
                    <circle id="Oval-3-Copy-115" cx="1046.5" cy="52.5" r="1.5"></circle>
                    <circle id="Oval-3-Copy-117" cx="1132.5" cy="52.5" r="1.5"></circle>
                    <circle id="Oval-3-Copy-116" cx="1166.5" cy="52.5" r="1.5"></circle>
                    <circle id="Oval-3-Copy-111" cx="807.5" cy="35.5" r="1.5"></circle>
                    <circle id="Oval-3-Copy-112" cx="1115.5" cy="35.5" r="1.5"></circle>
                    <circle id="Oval-3-Copy-113" cx="1166.5" cy="35.5" r="1.5"></circle>
                    <circle id="Oval-3-Copy-103" cx="789.5" cy="87.5" r="1.5"></circle>
                    <circle id="Oval-3-Copy-110" cx="823.5" cy="87.5" r="1.5"></circle>
                    <circle id="Oval-3-Copy-121" cx="1013.5" cy="87.5" r="1.5"></circle>
                    <circle id="Oval-3-Copy-124" cx="1013.5" cy="104.5" r="1.5"></circle>
                    <circle id="Oval-3-Copy-126" cx="1081.5" cy="104.5" r="1.5"></circle>
                    <circle id="Oval-3-Copy-127" cx="1115.5" cy="104.5" r="1.5"></circle>
                    <circle id="Oval-3-Copy-128" cx="1133.5" cy="104.5" r="1.5"></circle>
                    <circle id="Oval-3-Copy-129" cx="1184.5" cy="104.5" r="1.5"></circle>
                    <circle id="Oval-3-Copy-133" cx="1372.5" cy="104.5" r="1.5"></circle>
                    <circle id="Oval-3-Copy-125" cx="1013.5" cy="121.5" r="1.5"></circle>
                    <circle id="Oval-3-Copy-122" cx="1046.5" cy="87.5" r="1.5"></circle>
                    <circle id="Oval-3-Copy-123" cx="1063.5" cy="87.5" r="1.5"></circle>
                    <circle id="Oval-3-Copy-130" cx="1183.5" cy="87.5" r="1.5"></circle>
                    <circle id="Oval-3-Copy-131" cx="1321.5" cy="87.5" r="1.5"></circle>
                    <circle id="Oval-3-Copy-134" cx="1321.5" cy="121.5" r="1.5"></circle>
                    <circle id="Oval-3-Copy-135" cx="1303.5" cy="121.5" r="1.5"></circle>
                    <circle id="Oval-3-Copy-137" cx="1321.5" cy="190.5" r="1.5"></circle>
                    <circle id="Oval-3-Copy-138" cx="1321.5" cy="207.5" r="1.5"></circle>
                    <circle id="Oval-3-Copy-136" cx="1303.5" cy="190.5" r="1.5"></circle>
                    <circle id="Oval-3-Copy-139" cx="1286.5" cy="190.5" r="1.5"></circle>
                    <circle id="Oval-3-Copy-140" cx="1252.5" cy="190.5" r="1.5"></circle>
                    <circle id="Oval-3-Copy-141" cx="1252.5" cy="155.5" r="1.5"></circle>
                    <circle id="Oval-3-Copy-142" cx="1270.5" cy="173.5" r="1.5"></circle>
                    <circle id="Oval-3-Copy-132" cx="1355.5" cy="87.5" r="1.5"></circle>
                    <circle id="Oval-3-Copy-74" cx="618.5" cy="35.5" r="1.5"></circle>
                    <circle id="Oval-3-Copy-75" cx="635.5" cy="35.5" r="1.5"></circle>
                    <circle id="Oval-3-Copy-76" cx="669.5" cy="35.5" r="1.5"></circle>
                    <circle id="Oval-3-Copy-69" cx="601.5" cy="121.5" r="1.5"></circle>
                    <circle id="Oval-3-Copy-72" cx="669.5" cy="121.5" r="1.5"></circle>
                    <circle id="Oval-3-Copy-79" cx="669.5" cy="138.5" r="1.5"></circle>
                    <circle id="Oval-3-Copy-71" cx="652.5" cy="121.5" r="1.5"></circle>
                    <circle id="Oval-3-Copy-80" cx="635.5" cy="138.5" r="1.5"></circle>
                    <circle id="Oval-3-Copy-82" cx="669.5" cy="155.5" r="1.5"></circle>
                    <circle id="Oval-3-Copy-83" cx="652.5" cy="155.5" r="1.5"></circle>
                    <circle id="Oval-3-Copy-85" cx="669.5" cy="172.5" r="1.5"></circle>
                    <circle id="Oval-3-Copy-84" cx="652.5" cy="172.5" r="1.5"></circle>
                    <circle id="Oval-3-Copy-87" cx="669.5" cy="190.5" r="1.5"></circle>
                    <circle id="Oval-3-Copy-86" cx="652.5" cy="190.5" r="1.5"></circle>
                    <circle id="Oval-3-Copy-89" cx="652.5" cy="207.5" r="1.5"></circle>
                    <circle id="Oval-3-Copy-91" cx="652.5" cy="224.5" r="1.5"></circle>
                    <circle id="Oval-3-Copy-96" cx="652.5" cy="258.5" r="1.5"></circle>
                    <circle id="Oval-3-Copy-95" cx="652.5" cy="275.5" r="1.5"></circle>
                    <circle id="Oval-3-Copy-102" cx="686.5" cy="275.5" r="1.5"></circle>
                    <circle id="Oval-3-Copy-92" cx="669.5" cy="224.5" r="1.5"></circle>
                    <circle id="Oval-3-Copy-93" cx="635.5" cy="224.5" r="1.5"></circle>
                    <circle id="Oval-3-Copy-94" cx="635.5" cy="241.5" r="1.5"></circle>
                    <circle id="Oval-3-Copy-97" cx="635.5" cy="276.5" r="1.5"></circle>
                    <circle id="Oval-3-Copy-98" cx="635.5" cy="292.5" r="1.5"></circle>
                    <circle id="Oval-3-Copy-99" cx="669.5" cy="292.5" r="1.5"></circle>
                    <circle id="Oval-3-Copy-101" cx="635.5" cy="310.5" r="1.5"></circle>
                    <circle id="Oval-3-Copy-100" cx="669.5" cy="310.5" r="1.5"></circle>
                    <circle id="Oval-3-Copy-90" cx="686.5" cy="207.5" r="1.5"></circle>
                    <circle id="Oval-3-Copy-88" cx="635.5" cy="190.5" r="1.5"></circle>
                    <circle id="Oval-3-Copy-81" cx="635.5" cy="155.5" r="1.5"></circle>
                    <circle id="Oval-3-Copy-68" cx="549.5" cy="121.5" r="1.5"></circle>
                    <circle id="Oval-3-Copy-63" cx="549.5" cy="87.5" r="1.5"></circle>
                    <circle id="Oval-3-Copy-64" cx="549.5" cy="70.5" r="1.5"></circle>
                    <circle id="Oval-3-Copy-18" cx="18.5" cy="53.5" r="1.5"></circle>
                    <circle id="Oval-3-Copy-17" cx="35.5" cy="53.5" r="1.5"></circle>
                    <circle id="Oval-3-Copy-16" cx="52.5" cy="53.5" r="1.5"></circle>
                    <circle id="Oval-3-Copy-21" cx="18.5" cy="70.5" r="1.5"></circle>
                    <circle id="Oval-3-Copy-20" cx="35.5" cy="70.5" r="1.5"></circle>
                    <circle id="Oval-3-Copy-26" cx="35.5" cy="173.5" r="1.5"></circle>
                    <circle id="Oval-3-Copy-36" cx="138.5" cy="173.5" r="1.5"></circle>
                    <circle id="Oval-3-Copy-37" cx="155.5" cy="173.5" r="1.5"></circle>
                    <circle id="Oval-3-Copy-38" cx="172.5" cy="173.5" r="1.5"></circle>
                    <circle id="Oval-3-Copy-39" cx="172.5" cy="138.5" r="1.5"></circle>
                    <circle id="Oval-3-Copy-40" cx="172.5" cy="121.5" r="1.5"></circle>
                    <circle id="Oval-3-Copy-41" cx="172.5" cy="104.5" r="1.5"></circle>
                    <circle id="Oval-3-Copy-27" cx="35.5" cy="190.5" r="1.5"></circle>
                    <circle id="Oval-3-Copy-31" cx="35.5" cy="224.5" r="1.5"></circle>
                    <circle id="Oval-3-Copy-30" cx="18.5" cy="207.5" r="1.5"></circle>
                    <circle id="Oval-3-Copy-32" cx="18.5" cy="258.5" r="1.5"></circle>
                    <circle id="Oval-3-Copy-33" cx="52.5" cy="258.5" r="1.5"></circle>
                    <circle id="Oval-3-Copy-34" cx="86.5" cy="258.5" r="1.5"></circle>
                    <circle id="Oval-3-Copy-35" cx="86.5" cy="241.5" r="1.5"></circle>
                    <circle id="Oval-3-Copy-28" cx="1.5" cy="190.5" r="1.5"></circle>
                    <circle id="Oval-3-Copy-29" cx="1.5" cy="155.5" r="1.5"></circle>
                    <circle id="Oval-3-Copy-19" cx="52.5" cy="70.5" r="1.5"></circle>
                    <circle id="Oval-3-Copy-25" cx="52.5" cy="155.5" r="1.5"></circle>
                    <circle id="Oval-3-Copy-22" cx="103.5" cy="70.5" r="1.5"></circle>
                    <circle id="Oval-3-Copy-15" cx="69.5" cy="53.5" r="1.5"></circle>
                    <circle id="Oval-3-Copy-24" cx="52.5" cy="121.5" r="1.5"></circle>
                    <circle id="Oval-3-Copy-23" cx="69.5" cy="121.5" r="1.5"></circle>
                    <circle id="Oval-3-Copy-14" cx="86.5" cy="53.5" r="1.5"></circle>
                    <circle id="Oval-3-Copy-12" cx="103.5" cy="18.5" r="1.5"></circle>
                    <circle id="Oval-3-Copy-13" cx="120.5" cy="18.5" r="1.5"></circle>
                </g>
            </g>
        </g>
    </g>
</svg>