<?xml version="1.0" encoding="UTF-8"?>
<svg width="16px" height="16px" viewBox="0 0 16 16" version="1.1" xmlns="http://www.w3.org/2000/svg" xmlns:xlink="http://www.w3.org/1999/xlink">
    <!-- Generator: Sketch 51.3 (57544) - http://www.bohemiancoding.com/sketch -->
    <title>Group 3</title>
    <desc>Created with Sketch.</desc>
    <defs></defs>
    <g id="Page-1" stroke="none" stroke-width="1" fill="none" fill-rule="evenodd">
        <g id="website" transform="translate(-1169.000000, -46.000000)" fill="#FFFFFF">
            <g id="social" transform="translate(1161.000000, 40.000000)">
                <g id="Linkedin">
                    <g id="Group-29">
                        <g id="Group-3" transform="translate(8.000000, 6.000000)">
                            <path d="M2.15654762,4.12864482 C3.18921429,4.12864482 4.02638095,3.36518979 4.02638095,2.42238288 C4.02638095,1.47874178 3.18921429,0.714285714 2.15654762,0.714285714 C1.12288095,0.714285714 0.285714286,1.47874178 0.285714286,2.42238288 C0.285714286,3.36518979 1.12288095,4.12864482 2.15654762,4.12864482" id="Fill-182"></path>
                            <polygon id="Fill-183" points="0.714285714 15.10473 4.06928571 15.10473 4.06928571 5.42857143 0.714285714 5.42857143"></polygon>
                            <path d="M8.77807143,9.72304383 C8.77807143,8.61339797 9.30307143,7.52827744 10.5584048,7.52827744 C11.8137381,7.52827744 12.1224048,8.61339797 12.1224048,9.69651644 L12.1224048,14.9811402 L15.4624048,14.9811402 L15.4624048,9.48046 C15.4624048,5.65884701 13.2034048,5 11.8137381,5 C10.4252381,5 9.65940476,5.46965164 8.77807143,6.60766012 L8.77807143,5.3049816 L5.42857143,5.3049816 L5.42857143,14.9811402 L8.77807143,14.9811402 L8.77807143,9.72304383 Z" id="Fill-184"></path>
                        </g>
                    </g>
                </g>
            </g>
        </g>
    </g>
</svg>