<?xml version="1.0" encoding="UTF-8"?>
<svg width="16px" height="10px" viewBox="0 0 16 10" version="1.1" xmlns="http://www.w3.org/2000/svg" xmlns:xlink="http://www.w3.org/1999/xlink">
    <!-- Generator: Sketch 51.3 (57544) - http://www.bohemiancoding.com/sketch -->
    <title>Group 7</title>
    <desc>Created with Sketch.</desc>
    <defs></defs>
    <g id="Page-1" stroke="none" stroke-width="1" fill="none" fill-rule="evenodd">
        <g id="website" transform="translate(-1248.000000, -50.000000)" fill="#FFFFFF">
            <g id="social" transform="translate(1161.000000, 40.000000)">
                <g id="Behance" transform="translate(80.000000, 0.000000)">
                    <g id="Group-2" transform="translate(7.714286, 10.285714)">
                        <g id="Group-7">
                            <polygon id="Fill-169" points="9.85714286 2.21684246 13.5903095 2.21684246 13.5903095 1.28571429 9.85714286 1.28571429"></polygon>
                            <path d="M11.5303571,3.94067583 C12.4293571,3.94067583 12.8340238,4.32574013 13.0038571,5.24619061 L9.99352381,5.24619061 C10.0191905,4.73516291 10.3580238,3.94067583 11.5303571,3.94067583 M8.14285714,6.06403515 C8.14285714,8.10998119 9.45885714,9.54262725 11.5828571,9.54262725 C13.1081905,9.54262725 14.0696905,9.09316312 14.5900238,7.53255158 L13.1081905,7.53255158 C12.9910238,7.94230804 12.3908571,8.17421418 11.6475238,8.17421418 C10.6183571,8.17421418 10.0451905,7.75010957 9.99352381,6.59825346 L14.8536905,6.59825346 C14.9838571,4.56482034 13.8758571,2.57142857 11.5828571,2.57142857 C9.53769048,2.57142857 8.14285714,4.08082055 8.14285714,6.06403515" id="Fill-170"></path>
                            <path d="M1.87083333,7.55763759 L1.87083333,5.05004817 L4.09833333,5.05004817 C4.97183333,5.05004817 5.5705,5.42176535 5.5705,6.35506244 C5.5705,7.30237399 4.8675,7.55763759 4.0595,7.55763759 L1.87083333,7.55763759 Z M1.87083333,1.54592971 L3.78616667,1.54592971 C4.51533333,1.54592971 5.19333333,1.72561526 5.19333333,2.59568038 C5.19333333,3.36230535 4.65866667,3.68180194 3.94233333,3.68180194 L1.87083333,3.68180194 L1.87083333,1.54592971 Z M7.79316667,6.5420889 C7.79316667,5.40424726 7.22,4.54769609 6.08516667,4.22769899 C6.894,3.84346889 7.35,3.21748915 7.35,2.32106347 C7.35,0.620307215 6.151,0 4.3795,0 L0,0 L0,9.1909909 L4.5085,9.1909909 C6.1895,9.1909909 7.79316667,8.39717118 7.79316667,6.5420889 L7.79316667,6.5420889 Z" id="Fill-171"></path>
                        </g>
                    </g>
                </g>
            </g>
        </g>
    </g>
</svg>