<?xml version="1.0" encoding="UTF-8"?>
<svg width="15px" height="15px" viewBox="0 0 15 15" version="1.1" xmlns="http://www.w3.org/2000/svg" xmlns:xlink="http://www.w3.org/1999/xlink">
    <!-- Generator: Sketch 51.3 (57544) - http://www.bohemiancoding.com/sketch -->
    <title>Fill 30</title>
    <desc>Created with Sketch.</desc>
    <defs></defs>
    <g id="Page-1" stroke="none" stroke-width="1" fill="none" fill-rule="evenodd">
        <g id="website" transform="translate(-1289.000000, -47.000000)" fill="#FFFFFF">
            <g id="social" transform="translate(1161.000000, 40.000000)">
                <g id="Dribbble" transform="translate(120.000000, 0.000000)">
                    <path d="M21.5456667,14.3757831 C21.5248333,14.3721127 21.5031667,14.3687759 21.4806667,14.3649386 C21.402,14.3515915 21.3138333,14.337577 21.2161667,14.3228952 C21.1845,14.3180569 21.1561667,14.3138859 21.1225,14.3088807 C20.992,14.2901947 20.8511667,14.2713419 20.6953333,14.2529897 C20.6858333,14.2519886 20.6755,14.2509876 20.666,14.2499866 C20.5208333,14.2333027 20.3645,14.2181203 20.2015,14.2041059 C20.1618333,14.2006022 20.1226667,14.1975991 20.0821667,14.1944292 C19.9146667,14.1812489 19.741,14.1700707 19.5595,14.1618956 C19.5445,14.1612282 19.5306667,14.1602272 19.5156667,14.1595599 C19.3148333,14.1512179 19.1068333,14.1473806 18.8935,14.1477143 C18.8618333,14.1477143 18.83,14.1485485 18.7981667,14.1488822 C18.6121667,14.1503837 18.4233333,14.1563899 18.2315,14.1665671 C18.1935,14.168736 18.1563333,14.1702375 18.1181667,14.1725733 C17.893,14.1867546 17.6661667,14.2062748 17.4381667,14.2349711 C17.3925,14.1233558 17.3523333,14.0147436 17.3043333,13.9017937 C17.1696667,13.585467 17.024,13.2718098 16.873,12.9628241 C17.1295,12.8575487 17.3661667,12.749437 17.5921667,12.6369876 C17.6093333,12.6286456 17.626,12.6203037 17.6428333,12.6117949 C19.2451667,11.8039607 20.0918333,10.8833434 20.3493333,10.5610105 C20.4675,10.7063273 20.6013333,10.8394648 20.706,10.9941245 C20.932,11.3308055 21.1271667,11.6891755 21.2846667,12.0615601 C21.4453333,12.4414523 21.5676667,12.837528 21.6506667,13.2407778 C21.7283333,13.6261757 21.7676667,14.0219177 21.7733333,14.4174929 C21.7153333,14.4061478 21.6388333,14.3921333 21.5456667,14.3757831 M21.6506667,15.7737267 C21.5676667,16.1781443 21.4453333,16.5743868 21.2846667,16.9539454 C21.1271667,17.32633 20.932,17.6848669 20.706,18.0215479 C20.4811667,18.353891 20.2238333,18.6662136 19.9395,18.950674 C19.6683333,19.2227883 19.3695,19.4685421 19.0541667,19.6861001 C18.95,19.1053337 18.5945,17.3558605 17.8303333,15.2501861 C18.9586667,15.0691658 20.004,15.15392 20.7428333,15.2755456 C20.7441667,15.2758793 20.7455,15.2760461 20.7466667,15.2762129 C21.0343333,15.323762 21.2735,15.37665 21.4543333,15.4216965 C21.4673333,15.4250333 21.4796667,15.4280364 21.492,15.4312063 C21.5713333,15.4513938 21.6421667,15.4705803 21.6941667,15.4855958 C21.6793333,15.5815282 21.6698333,15.6787953 21.6506667,15.7737267 M17.9436667,20.298399 C17.5656667,20.4585644 17.1686667,20.5816915 16.7645,20.6647773 C16.352,20.7485305 15.9265,20.7922423 15.5,20.7922423 C15.0735,20.7922423 14.6481667,20.7485305 14.2343333,20.6647773 C13.8313333,20.5816915 13.4356667,20.4585644 13.0563333,20.298399 C12.6843333,20.1407362 12.3261667,19.9453678 11.99,19.7191342 C11.8638333,19.6337126 11.7435,19.5391149 11.6236667,19.4443504 C11.6551667,19.3859568 11.7053333,19.3002016 11.7638333,19.2052702 C11.7736667,19.1892537 11.7821667,19.1747387 11.7928333,19.1578879 C11.8553333,19.0589524 11.9348333,18.9421652 12.0258333,18.8160349 C12.0433333,18.7920101 12.0615,18.767318 12.08,18.742459 C12.1785,18.609822 12.2918333,18.4663405 12.4226667,18.3140165 C12.442,18.2916601 12.4638333,18.2681358 12.4838333,18.2452789 C12.6273333,18.0821104 12.7851667,17.9121015 12.968,17.7362533 C12.968,17.7360864 12.9681667,17.7360864 12.9681667,17.7360864 C13.1468333,17.5640755 13.3515,17.3877267 13.5703333,17.2115448 C13.6035,17.1848505 13.6348333,17.1581563 13.669,17.1314621 C13.885,16.962621 14.1236667,16.7949479 14.3791667,16.6304447 C14.4273333,16.5994127 14.4765,16.5685474 14.5261667,16.5380159 C14.7913333,16.3740132 15.0756667,16.2145152 15.3838333,16.0631923 C15.43,16.040669 15.4795,16.0193136 15.5266667,15.9969572 C15.8583333,15.8404623 16.2081667,15.6904741 16.5906667,15.5571697 C16.6043333,15.5524982 16.6178333,15.5493283 16.6315,15.5446568 C17.4723333,17.732416 17.8545,19.588833 17.9783333,20.2817151 C17.9665,20.2868871 17.9555,20.2935607 17.9436667,20.298399 M11.32,17.9386289 C11.2095,18.0819436 11.1133333,18.2122448 11.0345,18.3256953 C11.02,18.3462165 11.0106667,18.3602309 10.9973333,18.3797511 C10.9221667,18.4891974 10.8585,18.5857972 10.816,18.653367 C10.6348333,18.4484887 10.4476667,18.2476146 10.294,18.0215479 C10.068,17.6848669 9.873,17.32633 9.71533333,16.9539454 C9.55483333,16.5743868 9.43183333,16.1781443 9.34933333,15.7737267 C9.26583333,15.3606335 9.22216667,14.9348605 9.22216667,14.5079196 C9.22216667,14.4403498 9.23016667,14.3732805 9.23233333,14.3060444 C9.31116667,14.306545 9.42716667,14.3060444 9.57083333,14.3040424 L9.57116667,14.3040424 C10.5808333,14.2890269 13.0821667,14.1648987 15.6735,13.3890976 C15.8585,13.7516386 16.0288333,14.1198522 16.1911667,14.4870647 C16.1088333,14.5104222 16.0253333,14.5306097 15.9441667,14.5569702 C15.5961667,14.6695865 15.2701667,14.8067281 14.9566667,14.9545474 C14.912,14.975736 14.8661667,14.9949225 14.822,15.0166115 C14.5291667,15.1609272 14.2538333,15.3182564 13.9921667,15.4839274 C13.943,15.5151263 13.895,15.5458247 13.8468333,15.5775241 C13.5926667,15.7451972 13.3523333,15.9183761 13.1291667,16.0963932 C13.0935,16.1247558 13.0611667,16.1527848 13.0263333,16.1813142 C12.799,16.3678402 12.5833333,16.5562014 12.3896667,16.7428941 L12.3895,16.7432278 C12.1913333,16.9342584 12.0156667,17.1207844 11.8528333,17.301471 C11.8298333,17.3271642 11.8061667,17.35219 11.7838333,17.3775495 C11.634,17.546891 11.5025,17.7062222 11.3846667,17.8558768 C11.3618333,17.8847399 11.3415,17.9107668 11.32,17.9386289 M9.71533333,12.0615601 C9.873,11.6891755 10.068,11.3308055 10.294,10.9941245 C10.52,10.6606134 10.7763333,10.348124 11.0616667,10.0636636 C11.3458333,9.77920323 11.6578333,9.52143705 11.99,9.2963713 C12.261,9.11334898 12.5506667,8.95702088 12.8475,8.81804404 C13.1356667,9.21478706 14.1661667,10.6619481 15.1445,12.4025789 C14.9463333,12.4551331 14.7496667,12.5041838 14.5553333,12.5500645 L14.5553333,12.5500645 C14.5548333,12.5500645 14.5543333,12.5502313 14.5538333,12.5503982 C12.9841667,12.920447 11.5633333,13.0761077 10.5846667,13.1410081 C10.5838333,13.1411749 10.5828333,13.1411749 10.582,13.1411749 C10.1928333,13.1668681 9.87416667,13.1782131 9.64366667,13.1830515 C9.641,13.1830515 9.63833333,13.1832183 9.63566667,13.1832183 C9.52283333,13.1855541 9.4305,13.1863883 9.36333333,13.1863883 C9.4455,12.8019913 9.56216667,12.4241011 9.71533333,12.0615601 M14.2343333,8.35072814 C14.6481667,8.26597395 15.0735,8.22343002 15.5,8.22343002 C15.9265,8.22343002 16.352,8.26597395 16.7645,8.35072814 C17.1686667,8.43398077 17.5643333,8.55644056 17.9436667,8.71710647 C18.3156667,8.87493612 18.675,9.07013769 19.01,9.2963713 C19.2348333,9.4488621 19.435,9.63538805 19.6393333,9.81590779 C19.4013333,10.1195547 18.6325,10.9849483 17.095,11.7060263 C17.0908333,11.7080283 17.0865,11.7100304 17.0821667,11.7120325 C16.8635,11.8141379 16.6296667,11.9135739 16.3791667,12.0078379 C15.4211667,10.247687 14.3836667,8.80703266 14.0761667,8.39160368 C14.1291667,8.3792576 14.181,8.36190635 14.2343333,8.35072814 M22.4105,11.5849012 C22.222,11.1402754 21.9893333,10.7108319 21.7191667,10.3087501 C21.4501667,9.91217387 21.1416667,9.53845462 20.8036667,9.19877052 C20.4643333,8.85975377 20.091,8.55160223 19.6948333,8.28232417 C19.293,8.01121087 18.864,7.77880422 18.42,7.5902762 C17.966,7.39857825 17.4928333,7.25175998 17.0105,7.15232396 C16.5161667,7.05105272 16.0085,7 15.5,7 C14.9916667,7 14.4838333,7.05105272 13.9895,7.15232396 C13.5071667,7.25175998 13.0333333,7.39857825 12.5801667,7.5902762 C12.136,7.77880422 11.707,8.01121087 11.3053333,8.28232417 C10.909,8.55160223 10.5358333,8.85975377 10.1965,9.19877052 C9.85833333,9.53845462 9.55,9.91217387 9.281,10.3087501 C9.01066667,10.7108319 8.778,11.1402754 8.5895,11.5849012 C8.39816667,12.0385363 8.2515,12.5128594 8.15266667,12.9956913 C8.051,13.4907025 8,13.9988939 8,14.5079196 C8,15.0166115 8.051,15.5249698 8.15266667,16.019981 C8.2515,16.5028129 8.39816667,16.977136 8.5895,17.4296033 C8.778,17.8753969 9.01066667,18.3046736 9.281,18.7069223 C9.55,19.1034984 9.85833333,19.4772177 10.1965,19.8169018 C10.5358333,20.1552512 10.909,20.4640701 11.3053333,20.7321803 C11.707,21.0039609 12.136,21.2368681 12.5801667,21.4253961 C13.0333333,21.6170941 13.5071667,21.7639123 13.9895,21.862681 C14.4838333,21.9646196 14.9916667,22.0155055 15.5,22.0155055 C16.0085,22.0155055 16.5161667,21.9646196 17.0105,21.862681 C17.4928333,21.7639123 17.966,21.6170941 18.42,21.4253961 C18.864,21.2368681 19.293,21.0039609 19.6948333,20.7321803 C20.091,20.4640701 20.4643333,20.1552512 20.8036667,19.8169018 C21.1416667,19.4772177 21.4501667,19.1034984 21.7191667,18.7069223 C21.9893333,18.3046736 22.222,17.8753969 22.4105,17.4296033 C22.6013333,16.977136 22.7485,16.5028129 22.8473333,16.019981 C22.9491667,15.5249698 23,15.0166115 23,14.5079196 C23,13.9988939 22.9491667,13.4907025 22.8473333,12.9956913 C22.7485,12.5128594 22.6013333,12.0385363 22.4105,11.5849012" id="Fill-30"></path>
                </g>
            </g>
        </g>
    </g>
</svg>