<?xml version="1.0" encoding="UTF-8"?>
<svg width="17px" height="12px" viewBox="0 0 17 12" version="1.1" xmlns="http://www.w3.org/2000/svg" xmlns:xlink="http://www.w3.org/1999/xlink">
    <!-- Generator: Sketch 51.3 (57544) - http://www.bohemiancoding.com/sketch -->
    <title>Shape</title>
    <desc>Created with Sketch.</desc>
    <defs></defs>
    <g id="Page-1" stroke="none" stroke-width="1" fill="none" fill-rule="evenodd">
        <g id="website" transform="translate(-1208.000000, -49.000000)" fill="#FFFFFF" fill-rule="nonzero">
            <g id="social" transform="translate(1161.000000, 40.000000)">
                <g id="Facebook" transform="translate(40.000000, 0.000000)">
                    <path d="M20.1472041,15.8186346 C19.3653508,15.8186346 18.6327332,15.4891231 17.9671102,14.9527198 L18.1291938,14.1954887 L18.1362409,14.1674292 C18.2805657,13.3611875 18.7384399,12.00788 20.1472041,12.00788 C21.2037068,12.00788 22.0630784,12.8633193 22.0630784,13.9149876 C22.0595078,14.9631953 21.2002303,15.8186346 20.1472041,15.8186346 Z M20.1472041,10.0762672 C18.3474662,10.0762672 16.9528902,11.2401733 16.3859267,13.1542958 C15.519508,11.8606614 14.8644087,10.3076641 14.4805761,9 L12.5435606,9 L12.5435606,14.0166564 C12.5435606,15.0052845 11.7335188,15.8115262 10.7403461,15.8115262 C9.74717342,15.8115262 8.9372256,15.0052845 8.9372256,14.0166564 L8.9372256,9 L7,9 L7.00002209,14.0166564 C6.99297498,16.0710762 8.672912,17.7572623 10.7366816,17.7572623 C12.8005452,17.7572623 14.4804822,16.0710762 14.4804822,14.0166564 L14.4804822,13.1753404 C14.8572676,13.9570768 15.3186184,14.7458281 15.8786288,15.4470339 L14.6917075,21 L16.6745763,21 L17.5338539,16.9719717 C18.2875188,17.4522561 19.1539375,17.7538017 20.1471102,17.7538017 C22.2707332,17.7538017 24,16.0219721 24,13.9079728 C24,11.7975277 22.2707332,10.0762672 20.1471102,10.0762672 L20.1472041,10.0762672 Z" id="Shape"></path>
                </g>
            </g>
        </g>
    </g>
</svg>